<svg xmlns="http://www.w3.org/2000/svg" viewBox="0 0 733.5 795.54"><defs><style>.cls-1{fill:#fff;}</style></defs><g id="Layer_2" data-name="Layer 2"><g id="Layer_1-2" data-name="Layer 1"><path class="cls-1" d="M235.15,210.37c-20.33,5.68-57.16,16-92.21,25.78,31.42-.76,62.84,2.53,94.27,8.17a26.71,26.71,0,0,1-2.22-10.7V213.33A26.3,26.3,0,0,1,235.15,210.37Z"/><path class="cls-1" d="M609.06,241.31l-11.6-3.24h0c-32.55,1.39-65.1-1.68-97.65-7.31v3.07a26.94,26.94,0,0,1-21.1,26.25l3.4,45.54c51.62,10.33,103.23,15.05,154.83,6.63A290.09,290.09,0,0,0,610.44,264,22.24,22.24,0,0,1,609.06,241.31Z"/><path class="cls-1" d="M74.11,399.57c57.16-13.72,114.32-10,171.48,1q2.85-38.52,5.74-77.07C199,313,146.76,308.32,94.48,317.21A291.35,291.35,0,0,0,74.11,399.57Z"/><path class="cls-1" d="M660.84,428.79a298.43,298.43,0,0,0-3.26-44.15c-56.56,13.22-113.12,9.45-169.68-1.4l3.59,48.13a17.77,17.77,0,0,1-6.77,15.34c4.54,5.76,8.93,11.32,13,16.53a514.08,514.08,0,0,0,61,7.35l21.92-18.27a17.81,17.81,0,0,1,11.41-4.14,18.21,18.21,0,0,1,2.55.17,17.87,17.87,0,0,1,12.27,7.74q4.55,6.78,9.06,13.56a316.5,316.5,0,0,0,42.92-7.13A296,296,0,0,0,660.84,428.79Z"/><path class="cls-1" d="M99.2,549.3l69.68-81.74c-30.81-1.31-61.62.8-92.41,7.95A296.15,296.15,0,0,0,98.56,549.4Z"/><path class="cls-1" d="M161.7,127.17l70.47,19.7a1.22,1.22,0,0,0,.9-.08l1.21-.57A1.24,1.24,0,0,0,235,145c0-.28,0-.56,0-.84V125.26a28.18,28.18,0,0,1,28.17-28.18H269a1.28,1.28,0,0,0,1.24-.94,114.44,114.44,0,0,1,5.71-16.41q1.11-2.45,2.32-4.8a1.3,1.3,0,0,0-1.47-1.84,362,362,0,0,0-115.46,51.76A1.3,1.3,0,0,0,161.7,127.17Z"/><path class="cls-1" d="M456.87,76a150.13,150.13,0,0,1,7.6,20.2,1.28,1.28,0,0,0,1.23.9h7.21A26.91,26.91,0,0,1,499.79,124V144.4l2.8,2.12,69.21-19.35a1.3,1.3,0,0,0,.38-2.32A362.27,362.27,0,0,0,458,73.41a1.3,1.3,0,0,0-1.48,1.83Z"/><path class="cls-1" d="M694.37,263.54a4.43,4.43,0,0,0-4.66-2.4,26.46,26.46,0,0,1-11.81-.58L630.09,247.2a4.46,4.46,0,0,0-4.9,6.8,312,312,0,0,1,34.7,281.26q-3.67,10.14-8,20-5.72,12.9-12.58,25.25-6.18,11.13-13.28,21.72-8.12,12.18-17.42,23.58A313,313,0,0,1,433.19,733.61a316.65,316.65,0,0,1-132.26.14,312,312,0,0,1-206-152q-4.71-8.4-8.88-17A312.09,312.09,0,0,1,108.31,254a4.46,4.46,0,0,0-4.9-6.8L55.6,260.56a26.46,26.46,0,0,1-11.81.58,4.43,4.43,0,0,0-4.66,2.4,367.54,367.54,0,0,0,8.61,346.17q4.62,8.19,9.68,16.12a361.08,361.08,0,0,0,25.25,34.95A369.06,369.06,0,0,0,230.09,769.15a360.66,360.66,0,0,0,59.32,18.2,369.85,369.85,0,0,0,155.41-.13,361.09,361.09,0,0,0,58.62-18.07A368.81,368.81,0,0,0,651.05,660.51q8.07-9.9,15.39-20.31,2.74-3.84,5.35-7.77,8.06-12.07,15.11-24.75,5-8.88,9.39-18a367.46,367.46,0,0,0-1.92-326.13Z"/><path class="cls-1" d="M261.87,114.91A9.06,9.06,0,0,0,252.8,124v20.22a9.07,9.07,0,0,0,9.07,9.08h10.21a9.06,9.06,0,0,1,9.05,9.72c-.8,11-1.59,21.84-2.4,32.86a9.06,9.06,0,0,1-9,8.42h-7.81a9.06,9.06,0,0,0-9.06,9.06v20.29a9.07,9.07,0,0,0,9.06,9.08h3.59a9.08,9.08,0,0,1,9,9.75q-8.1,108.27-16.15,216.35c39.16-41.57,78.05-82.87,118.59-125.92a17.81,17.81,0,0,1,13-5.61c.26,0,.53,0,.79,0A17.91,17.91,0,0,1,404,344.07l69.77,88.63Q467,342.79,460.27,252.64a9.07,9.07,0,0,1,9-9.75h3.59a9.08,9.08,0,0,0,9.08-9.06V213.55a9.08,9.08,0,0,0-9.08-9.06h-7.74a9.08,9.08,0,0,1-9-8.39l-2.47-32.88a9.07,9.07,0,0,1,9-9.76h10.24A9.06,9.06,0,0,0,482,144.4V124a9.06,9.06,0,0,0-9.06-9.06H458.32a9.06,9.06,0,0,1-8.65-6.32c-2.76-8.74-5.14-17.14-8.86-24.89a78.58,78.58,0,0,0-10.28-16.16c-9.64-11.7-22.42-20-37.77-24.83-5.09-1.62-6.54-4-6.31-9,.4-8.17.5-16.36.61-24.54A9.08,9.08,0,0,0,378,0H356.82a9.07,9.07,0,0,0-9.06,9.24c.18,9.43.36,18.88.21,28.31,0,1.58-2.85,3.88-4.82,4.51-15.75,5.12-28.7,13.49-38.58,25.2a84.36,84.36,0,0,0-12.39,19.81c-3,6.6-4.76,13.74-6.77,21.13a9.07,9.07,0,0,1-8.75,6.71Zm55.45,79.28c.81-10.8,1.62-21.52,2.42-32.27a9.07,9.07,0,0,1,9.05-8.41H406a9.09,9.09,0,0,1,9.05,8.41c.8,10.79,1.61,21.47,2.41,32.26a9.08,9.08,0,0,1-9,9.76H326.37A9.09,9.09,0,0,1,317.32,194.19Z"/><path class="cls-1" d="M628.36,563.15c2.52-4.95,4.93-10,7.19-15.1,1.53-3.46,3-7,4.42-10.52Q616,501.79,592.11,466l-69.36,57.83-46.66-59.28L389.93,355.1C344.2,403.67,300.56,450,256.26,497q-6.16,6.56-12.38,13.14l-44.74-50.66L107.32,567.26c1,1.94,2.07,3.87,3.17,5.82A294.18,294.18,0,0,0,304.67,716.32,293.95,293.95,0,0,0,594.75,614.56c5.8-7.11,11.33-14.58,16.41-22.21.55-.82,1.1-1.64,1.63-2.47q-32.2-30.21-65-61l37.13-35C599.59,517.29,614,540.32,628.36,563.15ZM294.14,706.71c-22.62-17.52-45.24-35-68.1-52.73L205.8,638.31l-84.24-65.25,75.5-81.27L251.12,566c13,17.84,26.14,35.93,39.88,54.8l-49.1,2.32L263.66,654c11.74,16.64,22.94,32.53,34.15,48.41ZM524,573.36l-41.13-18.11c-4.75-2.08-9.48-4.18-14.22-6.26l-2.87,3.93c6.23,8.57,12.44,17.15,18.85,26,8.38,11.56,17.1,23.6,26.62,36.72l-.43,0-61.65,5.93L469.39,654c5.34,8.57,10.52,16.86,15.71,25.16l-4.27,3.32q-12.1-14.24-24.25-28.48L386.05,571.2,359,539.4,316.87,490l56,4.43c-10-22.25-18.71-41.86-29-64.73h42.77c-.79-15.24-1.37-26-1.93-36.77l5.65-2.73L479.19,506l48.18,62.83C526.24,570.35,525.13,571.86,524,573.36Z"/><path class="cls-1" d="M50,243.58a7.74,7.74,0,0,0,.77-.18l84.38-23.6,111-31c9.85-2.75,9.85-16.7,0-19.45l-36.47-10.2L140.8,139.83l-90-25.16a8.69,8.69,0,0,0-11,8.38V235A8.69,8.69,0,0,0,50,243.58Z"/><path class="cls-1" d="M487.28,169.31c-9.85,2.75-9.85,16.7,0,19.45l111,31,84.38,23.6a7.74,7.74,0,0,0,.77.18A8.7,8.7,0,0,0,693.74,235v-112a8.7,8.7,0,0,0-11-8.38l-90,25.16-69,19.28Z"/></g></g></svg>